<svg id="Layer_1" data-name="Layer 1" xmlns="http://www.w3.org/2000/svg" viewBox="0 0 181.06 99.08"><defs><style>.cls-1{fill:#fff;}.cls-2{fill:#4f334f;}</style></defs><path class="cls-1" d="M133.45,66.72c.52-.73,1.05-1.48,1.56-2.24C143.83,51.33,147.94,36.2,145.74,25a21.85,21.85,0,0,0-2.84-7.44,30.88,30.88,0,0,1,1.4,11.25,46.34,46.34,0,0,1-.63,5.82A67.72,67.72,0,0,1,133,60.25a73.49,73.49,0,0,1-8.44,10.4,38.45,38.45,0,0,1-3.93-2.48l-.16.25a20.41,20.41,0,0,1-2.21-1.56c-.76,1-1.42,1.85-2.18,2.85.78.64,1.62,1.14,2.43,1.71,0,.06-.2.32-.33.51,1,.68,2,1.31,3,1.92a58.65,58.65,0,0,1-6.14,4.82l-.83-.55c-.4.63-.81,1.26-1.22,1.89a38.42,38.42,0,0,1-12.47,5.15c-5.46,1.08-10.32.32-14.06-2.19A15.88,15.88,0,0,1,82,78.36a17.12,17.12,0,0,0,6.52,8.84c4.08,2.74,9.22,3.34,14.77,2.11.6-.13,1.21-.29,1.82-.47l.52-.16c.46-.14.91-.29,1.37-.45l.56-.2c.54-.2,1.08-.42,1.63-.65l.23-.1c.63-.27,1.25-.57,1.88-.88l.49-.25c.48-.24,1-.5,1.43-.76l.57-.33c.51-.29,1-.6,1.52-.91l.38-.23c1.26-.81,2.52-1.69,3.76-2.64l.59-.45q.7-.56,1.41-1.14l.46-.38c.61-.52,1.22-1.06,1.82-1.61l.36-.34c.48-.45,1-.91,1.45-1.38l.46-.47h0q1.85-1.85,3.61-3.9l.11-.13h0c1.11-1.31,2.2-2.68,3.25-4.11Zm18.91,8.11a5.4,5.4,0,0,0,.93-.76h0c-.36-.88-.8-1.74-1.2-2.64h0c-.14.11-.22.2-.37.31,0,0-.06-.12-.06-.14-.58.39-1.11.8-1.65,1.18.25.79.53,1.52.83,2.28.4-.28.86-.6,1.25-.91A6.4,6.4,0,0,1,152.36,74.83Zm-.82-4.62c-.58-1.25-1.21-2.46-1.86-3.74h0a20.52,20.52,0,0,1-2.12,1.28c.49,1.2.92,2.32,1.36,3.51a6.18,6.18,0,0,0,.83-.48,4.4,4.4,0,0,0,.22.54,11.49,11.49,0,0,0,1.57-1.12ZM97.33,56.76c1.6-.67,3.11-1.36,4.73-2a26.71,26.71,0,0,1-1.62-5c-1.62.41-3.13.87-4.73,1.31A31,31,0,0,0,97.33,56.76Zm-.51,10c1.1-.81,2.21-1.56,3.36-2.34A30.9,30.9,0,0,1,97.56,60c-1.2.59-2.27,1.28-3.45,1.91A32.27,32.27,0,0,0,96.82,66.78Zm7.51-20.05a8.73,8.73,0,0,1-.22-1.76c-1.28.1-2.47.32-3.74.51a11.72,11.72,0,0,0,.17,1.93l-.14,0a24.92,24.92,0,0,0,1,4.65c1.55-.5,3.07-1,4.64-1.42a22.8,22.8,0,0,1-1-4.05ZM105.16,70a44.49,44.49,0,0,1-4.2-5.1c-1.33,1-2.64,1.85-4,2.82a48,48,0,0,0,4.46,5.72C102.72,72.25,103.88,71.09,105.16,70Zm4-14.57a6.71,6.71,0,0,0,.95,1.43l-.08,0A32.35,32.35,0,0,0,113.44,61c1.36-1,2.63-2,3.91-3-1-1.21-2-2.28-2.9-3.46,0,0-.19.1-.22.11a8.6,8.6,0,0,1-.88-1.26C112,54.06,110.61,54.71,109.18,55.4Zm.79,2.54A34.25,34.25,0,0,1,107.45,54a2.78,2.78,0,0,0-.52.21c-.35-.64-.64-1.28-.94-1.92l-3.61,1.34c.27.63.62,1.4,1,2.1a1.64,1.64,0,0,0-.3.14,32.18,32.18,0,0,0,2.74,4.51C107.22,59.55,108.56,58.7,110,57.94Zm-12.51-22a12.56,12.56,0,0,0-.79,1.81h.07a.69.69,0,0,1-.07.15c1.47.06,2.88.09,4.39.19a27.57,27.57,0,0,1,1.47-3.15s-.11.2-.12.25h0a15.5,15.5,0,0,0-.92,1.93c1.48.13,2.87.28,4.39.47a14.36,14.36,0,0,1,1.53-3.12,3.08,3.08,0,0,1-.6-.14,12.41,12.41,0,0,0,.79-1.16c-1.14-.27-2.21-.57-3.34-.86-.45.65-1,1.26-1.42,2-1.37-.25-2.65-.45-4-.65a2.72,2.72,0,0,1-.19.29h-.08A14.46,14.46,0,0,1,100,32l-.57-.1a26.28,26.28,0,0,1,2.44-2.62l-2.82-.74a21.14,21.14,0,0,0-3,3.14s0,0,.06,0a21.46,21.46,0,0,0-2.63,4C94.81,35.72,96.09,35.78,97.46,35.91Zm10.74-2.54.24.06a6.72,6.72,0,0,0-.67.93c1.41.3,2.8.73,4.28,1.13a16.51,16.51,0,0,1,1.81-2.35,4.43,4.43,0,0,0-.47-.19,5.2,5.2,0,0,1,.54-.52c-1.16-.52-2.25-1-3.37-1.41.31-.26.59-.52.92-.77-.19-.09-.36-.18-.53-.24.32-.2.66-.5,1-.72-1-.5-1.89-.89-2.81-1.33a20.75,20.75,0,0,0-2.75,2.09l.09,0A17.93,17.93,0,0,0,105,31.51c1.24.33,2.48.72,3.79,1.13C108.6,32.91,108.42,33.1,108.2,33.37Zm11.11,32.71c1.6,1.11,3.12,2.21,4.76,3.18.72-1.47,1.4-2.85,2.07-4.23-1.35-.83-2.65-1.72-4-2.67,0,0,0,0,0,0-.4-.39-.88-.66-1.31-1-.94,1.12-1.84,2.16-2.82,3.31a18.46,18.46,0,0,0,1.49,1.15Zm-6.56-4.66s-.29.22-.33.25c-.59-.59-1.13-1.24-1.72-1.83-1,.7-2.06,1.38-3.13,2.14l1.85,2-.38.3c1.4,1.34,2.72,2.8,4.38,4.13,1.1-1.22,2.11-2.26,3.18-3.43A42.54,42.54,0,0,1,112.75,61.42ZM110.19,42a14.43,14.43,0,0,1,.42-3.15c-.07,0-.37,0-.55-.07.08-.3.14-.57.23-.85-1.43-.26-2.76-.42-4.18-.6a16.84,16.84,0,0,0-.84,3.34h.08a13.28,13.28,0,0,0-.14,1.34C106.88,42,108.5,42,110.19,42Zm-2,29.9a67.29,67.29,0,0,0,6,4.75c1.08-1.55,2-2.92,3-4.36-1.88-1.29-3.57-2.72-5.31-4.14C110.65,69.44,109.46,70.54,108.2,71.88Zm1.67-26.68c-1.55.19-3.05.37-4.62.6a21.52,21.52,0,0,0,1,3.83h0c.19.53.4,1.07.61,1.7,1.67-.54,3.26-1,4.91-1.46a18.69,18.69,0,0,1-1.21-3.61,3,3,0,0,0-.42.06C110.06,45.89,110,45.57,109.87,45.2Zm-5-1.49a16.19,16.19,0,0,1,.33-3.73c-.08,0-.42,0-.64,0,.12-.49.21-1,.36-1.46l-3.73-.24a18.61,18.61,0,0,0-.64,2.52c0,.06,0,.23-.06.35a5.29,5.29,0,0,0-.1.54h0a18.15,18.15,0,0,0-.21,2.47C101.71,44,103.22,43.78,104.83,43.71ZM94.7,42.11c-1.19.09-2.35.2-3.51.35a26.85,26.85,0,0,0-.52,4.59l3.67-.73A22.92,22.92,0,0,1,94.7,42.11ZM155,79.72c-.73.55-1.34,1.14-2,1.69.22.71.45,1.44.64,2.16.78-.59,1.48-1.21,2.14-1.82C155.5,81.05,155.2,80.42,155,79.72Zm-19.65-6c0-.48.06-.94.1-1.41l-1,1.24Zm18.35,1.54h0l-.07-.18A27.16,27.16,0,0,1,151.12,77s.06.15.06.18l-.32.22c.3,1.19.69,2.3,1,3.48a29,29,0,0,0,3.07-2.4C154.53,77.38,154.13,76.36,153.68,75.26Zm-20.36-.37c-.9,1-1.83,2.06-2.77,3,.73.21,1.47.39,2.21.59C133,77.29,133.14,76.11,133.32,74.89Zm-17.16,9,.42-.28-.43.27Zm4.3,2.7a33.15,33.15,0,0,0,3.94,1.43c.42-1.48,1-2.82,1.48-4.26-.4-.12-.78-.26-1.17-.41Q122.63,85.13,120.46,86.63ZM144.2,69.17c-.39,0-.77.12-1.19.19,0,0,0-.21-.06-.24a19.58,19.58,0,0,1-3.06.24c.16,1.42.28,2.78.38,4.21.42,0,.79-.06,1.19-.09a3.05,3.05,0,0,1,.06.56,20,20,0,0,0,3.68-.56C144.92,72,144.57,70.63,144.2,69.17ZM138,84.79c.09-1.53.15-3,.21-4.52h-.23v-.09c-1.44-.08-2.74-.22-4.27-.45v.07l-.3,0c-.21,1.57-.49,3.06-.77,4.63A34.61,34.61,0,0,0,138,84.79Zm3.59-5.74c-.09-1.26-.17-2.46-.27-3.73a12.54,12.54,0,0,1-2.45,0v0a18.37,18.37,0,0,1-3-.29c-.13,1.07-.17,2.09-.24,3.16.81.09,1.5.19,2.22.23,0,.08,0,.46,0,.7A20,20,0,0,0,141.54,79.05ZM95.37,51.53a28.08,28.08,0,0,1-.46-5.24c-1.48.27-2.84.55-4.29.83A30.5,30.5,0,0,0,91,52.94C92.4,52.45,93.85,52,95.37,51.53Zm22.91,31h0l-.25.17ZM136.15,86c-.15,1.06-.21,2.06-.34,3.12a26.17,26.17,0,0,0,4-.19c0-1,.06-2,.09-3A27.58,27.58,0,0,1,136.15,86Zm4.95-.17c0,1.24,0,2.43,0,3.64a23.44,23.44,0,0,0,4.45-1c-.09-1.15-.17-2.29-.29-3.47A23.06,23.06,0,0,1,141.1,85.79ZM146,74.58s0-.07,0-.08c-.78.27-1.53.37-2.33.57.11,1,.32,1.84.41,2.79l1.7-.42a6.2,6.2,0,0,0,.14.75,28.2,28.2,0,0,0,3-1.16c-.23-1.06-.63-2.09-.9-3.17A20.32,20.32,0,0,1,146,74.58Z" transform="translate(-32.12 -17.58)"/><path class="cls-2" d="M101.22,27c1,.3,2,.69,3.1,1,.63-.5,1.26-.87,2-1.33l3.08,1.36a4.13,4.13,0,0,0,.52-.33c1,.55,2,1,3.11,1.57-.48.31-1,.64-1.52,1,1.24.54,2.39,1.14,3.68,1.73.44-.34,1-.69,1.46-1a12.79,12.79,0,0,1,1.14-.62,19.86,19.86,0,0,1,9.94-1.9,28.3,28.3,0,0,1,10.6,2.81,32,32,0,0,1,5.37,3.34,46.55,46.55,0,0,0,.63-5.82,45.9,45.9,0,0,0-15.67-6.68C118.49,20,109,21.4,101.22,27Zm61.44,25.86a43.1,43.1,0,0,0-11.47-18.45,53,53,0,0,1-.95,7,25.78,25.78,0,0,1,3.28,6.36c2.34,6.85,1.31,14-4.12,18.15.09.19.18.36.28.55h0c.65,1.28,1.28,2.49,1.86,3.74h0l0,0c.18.41.36.8.54,1.19h0c.4.9.84,1.77,1.2,2.64h0c0,.07.07.14.11.22s.08.16.08.2c.57,1.32,1.11,2.55,1.59,3.8a.69.69,0,0,0,.05.13c.48,1.21.91,2.34,1.32,3.49a25.79,25.79,0,0,0,7.17-13.55A32.29,32.29,0,0,0,162.66,52.86Z" transform="translate(-32.12 -17.58)"/><path class="cls-1" d="M42.68,116.26a1.41,1.41,0,0,1-1,.4,1.39,1.39,0,0,1-1-.42,1.17,1.17,0,0,1-.24-.35L32.23,98.2a1.32,1.32,0,0,1-.11-.57,1.47,1.47,0,0,1,1.46-1.46,1.45,1.45,0,0,1,1,.42,1.5,1.5,0,0,1,.28.38l6.74,14.72L48.37,97a1.31,1.31,0,0,1,.29-.38,1.4,1.4,0,0,1,1-.42,1.5,1.5,0,0,1,1.46,1.46,1.48,1.48,0,0,1-.11.57l-8.12,17.69a1.69,1.69,0,0,1-.24.37" transform="translate(-32.12 -17.58)"/><path class="cls-1" d="M70.79,113.59a10,10,0,0,1-7.32,3.07,10.25,10.25,0,1,1,10.25-10.25v8.79a1.43,1.43,0,0,1-.44,1,1.4,1.4,0,0,1-1,.42,1.43,1.43,0,0,1-1.46-1.46v-1.61m-7.32-14.5a7.31,7.31,0,1,0,5.18,2.14,7.08,7.08,0,0,0-5.18-2.14" transform="translate(-32.12 -17.58)"/><path class="cls-1" d="M80.27,106.41a6.18,6.18,0,0,1-2.32-1.3,4.16,4.16,0,0,1-1.3-3.09A4.32,4.32,0,0,1,78,98.86a9.18,9.18,0,0,1,6.88-2.69,10.18,10.18,0,0,1,7.87,3.67,1.23,1.23,0,0,1,.28.87,1.45,1.45,0,0,1-.44,1,1.41,1.41,0,0,1-1,.42,1.28,1.28,0,0,1-1-.39l-.53-.55a7.08,7.08,0,0,0-5.18-2.14A6.39,6.39,0,0,0,80,101a1.92,1.92,0,0,0-.44,1.26,1.27,1.27,0,0,0,.9,1.17l9,3a6.63,6.63,0,0,1,2.33,1.3,4.23,4.23,0,0,1,1.3,3.1A4.31,4.31,0,0,1,91.76,114a9.17,9.17,0,0,1-6.88,2.69A10.15,10.15,0,0,1,77,113a1.49,1.49,0,0,1-.27-.86,1.4,1.4,0,0,1,.42-1,1.43,1.43,0,0,1,1-.44,1.27,1.27,0,0,1,1,.39l.53.54a7.07,7.07,0,0,0,5.18,2.15,6.38,6.38,0,0,0,4.85-1.91,1.92,1.92,0,0,0,.44-1.26,1.26,1.26,0,0,0-.9-1.17l-9-3" transform="translate(-32.12 -17.58)"/><path class="cls-1" d="M113.61,88.81a1.4,1.4,0,0,1,.43-1,1.43,1.43,0,0,1,1-.44,1.37,1.37,0,0,1,1,.44,1.34,1.34,0,0,1,.44,1v17.6a10.24,10.24,0,1,1-3-7.24.23.23,0,0,1,.07.07V88.81m0,17.6a7.32,7.32,0,1,0-2.14,5.18,7.06,7.06,0,0,0,2.14-5.18" transform="translate(-32.12 -17.58)"/><path class="cls-1" d="M119.47,97.63a1.39,1.39,0,0,1,.42-1,1.41,1.41,0,0,1,1-.44,1.33,1.33,0,0,1,1,.44,1.37,1.37,0,0,1,.44,1v1.61a10,10,0,0,1,7.32-3.07,10.31,10.31,0,0,1,3.94.73,1.74,1.74,0,0,1,.6.38,1.48,1.48,0,0,1,0,2.09,1.39,1.39,0,0,1-1,.42,1.41,1.41,0,0,1-.65-.15,7.31,7.31,0,0,0-2.85-.55,7.31,7.31,0,0,0-7.32,7.32v8.79a1.43,1.43,0,0,1-.44,1,1.39,1.39,0,0,1-1,.42,1.47,1.47,0,0,1-1-.42,1.45,1.45,0,0,1-.42-1V97.63" transform="translate(-32.12 -17.58)"/><path class="cls-1" d="M152.93,111.69a1.33,1.33,0,0,1,1,.44,1.37,1.37,0,0,1,.44,1,1.45,1.45,0,0,1-.42,1,10.25,10.25,0,1,1,3.57-7.78,1.45,1.45,0,0,1-.44,1,1.39,1.39,0,0,1-1,.42h-16a7.37,7.37,0,0,0,7.19,5.86A7,7,0,0,0,152,112a1.46,1.46,0,0,1,.92-.31m1.55-6.74a7.34,7.34,0,0,0-14.38,0h14.38" transform="translate(-32.12 -17.58)"/><path class="cls-1" d="M178,113.59a10,10,0,0,1-7.32,3.07A10.25,10.25,0,1,1,181,106.41v8.79a1.45,1.45,0,0,1-1.46,1.46A1.43,1.43,0,0,1,178,115.2v-1.61m-7.32-14.5a7.31,7.31,0,1,0,5.18,2.14,7.07,7.07,0,0,0-5.18-2.14" transform="translate(-32.12 -17.58)"/><path class="cls-1" d="M186.82,115.2a1.43,1.43,0,0,1-.44,1,1.39,1.39,0,0,1-1,.42,1.47,1.47,0,0,1-1.05-.42,1.45,1.45,0,0,1-.42-1V97.63a1.39,1.39,0,0,1,.42-1,1.41,1.41,0,0,1,1.05-.44,1.33,1.33,0,0,1,1,.44,1.37,1.37,0,0,1,.44,1V98a8.05,8.05,0,0,1,10.82.52,7.9,7.9,0,0,1,.89,1,8.83,8.83,0,0,1,.9-1,8.06,8.06,0,0,1,13.75,5.69v11a1.43,1.43,0,0,1-.44,1,1.41,1.41,0,0,1-1,.42,1.43,1.43,0,0,1-1.46-1.46v-11a5.13,5.13,0,1,0-10.25,0v11a1.43,1.43,0,0,1-.44,1,1.4,1.4,0,0,1-1,.42,1.43,1.43,0,0,1-1.46-1.46v-11a5.13,5.13,0,1,0-10.25,0v11" transform="translate(-32.12 -17.58)"/></svg>